<?xml version="1.0" encoding="utf-8"?>
<!-- Generator: Adobe Illustrator 15.0.0, SVG Export Plug-In . SVG Version: 6.00 Build 0)  -->
<!DOCTYPE svg PUBLIC "-//W3C//DTD SVG 1.1//EN" "http://www.w3.org/Graphics/SVG/1.1/DTD/svg11.dtd">
<svg version="1.1" id="Colour" xmlns="http://www.w3.org/2000/svg" xmlns:xlink="http://www.w3.org/1999/xlink" x="0px" y="0px"
	 width="1190.552px" height="841.89px" viewBox="0 0 1190.552 841.89" enable-background="new 0 0 1190.552 841.89"
	 xml:space="preserve">
<path fill="#4F5263" d="M865.666,276.64H731.45l-10.175-17.646l24.656-42.665l-32.772-56.743h-25.877l49.802-86.26
	c5.346-9.256,2.168-21.106-7.1-26.466c-9.27-5.357-21.116-2.168-26.465,7.108l-61.496,106.47H530.219L468.703,53.958
	c-5.337-9.288-17.187-12.475-26.464-7.117c-9.258,5.365-12.456,17.207-7.088,26.474l49.8,86.271h-25.87l-32.768,56.743
	l24.627,42.645l-10.196,17.667H306.549l-78.291,135.574l78.291,135.611h134.163l61.508,106.558l2.266-1.322l-2.238,1.381
	l83.97,139.805l83.71-139.896l0.046,0.033l61.535-106.558h134.157l78.311-135.611L865.666,276.64z M462.136,239.58L448.7,216.329
	l21.577-37.368h25.86l0.498,0.841L462.136,239.58z M675.577,179.844l0.51-0.883h25.888l21.567,37.368l-13.443,23.288
	L675.577,179.844z"/>
<polygon fill="#FFFFFF" points="440.712,315.385 439.158,315.385 328.927,315.385 273.035,412.214 328.927,509.06 439.53,509.06
	440.745,509.06 496.626,412.264 "/>
<polygon fill="#FFFFFF" points="843.285,315.385 731.509,315.385 731.366,315.621 675.577,412.214 731.481,509.06 731.598,509.06
	843.285,509.06 899.187,412.214 "/>
<polygon fill="#61C202" points="642.023,199.208 530.239,199.208 530.091,199.444 474.315,296.047 530.21,392.896 530.335,392.896
	642.023,392.896 697.93,296.047 "/>
<polygon fill="#61C202" points="636.892,634.163 636.863,634.125 586.151,718.865 535.792,635.007 535.792,635.007 474.295,528.479
	521.527,446.647 530.198,431.649 641.997,431.649 697.908,528.479 "/>
<rect x="203.941" fill="none" width="766.462" height="821.875"/>
</svg>
